<?xml version="1.0" encoding="UTF-8" standalone="no"?>
<svg
   xmlns:dc="http://purl.org/dc/elements/1.1/"
   xmlns:cc="http://creativecommons.org/ns#"
   xmlns:rdf="http://www.w3.org/1999/02/22-rdf-syntax-ns#"
   xmlns:svg="http://www.w3.org/2000/svg"
   xmlns="http://www.w3.org/2000/svg"
   xmlns:sodipodi="http://sodipodi.sourceforge.net/DTD/sodipodi-0.dtd"
   xmlns:inkscape="http://www.inkscape.org/namespaces/inkscape"
   version="1.1"
   width="256"
   height="256"
   viewBox="0 0 256 256"
   xml:space="preserve"
   id="svg185"
   sodipodi:docname="LAVA_Delete.svg"
   inkscape:version="0.92.3 (2405546, 2018-03-11)"><metadata
   id="metadata189"><rdf:RDF><cc:Work
       rdf:about=""><dc:format>image/svg+xml</dc:format><dc:type
         rdf:resource="http://purl.org/dc/dcmitype/StillImage" /><dc:title></dc:title></cc:Work></rdf:RDF></metadata><sodipodi:namedview
   pagecolor="#ffffff"
   bordercolor="#666666"
   borderopacity="1"
   objecttolerance="10"
   gridtolerance="10"
   guidetolerance="10"
   inkscape:pageopacity="0"
   inkscape:pageshadow="2"
   inkscape:window-width="2560"
   inkscape:window-height="1385"
   id="namedview187"
   showgrid="false"
   inkscape:pagecheckerboard="true"
   inkscape:zoom="2.5191891"
   inkscape:cx="63.296639"
   inkscape:cy="121.25529"
   inkscape:window-x="0"
   inkscape:window-y="27"
   inkscape:window-maximized="1"
   inkscape:current-layer="svg185" />

<defs
   id="defs169">

	
	
	
	
	
	
</defs>
<path
   style="color:#000000;font-style:normal;font-variant:normal;font-weight:normal;font-stretch:normal;font-size:medium;line-height:normal;font-family:sans-serif;font-variant-ligatures:normal;font-variant-position:normal;font-variant-caps:normal;font-variant-numeric:normal;font-variant-alternates:normal;font-feature-settings:normal;text-indent:0;text-align:start;text-decoration:none;text-decoration-line:none;text-decoration-style:solid;text-decoration-color:#000000;letter-spacing:normal;word-spacing:normal;text-transform:none;writing-mode:lr-tb;direction:ltr;text-orientation:mixed;dominant-baseline:auto;baseline-shift:baseline;text-anchor:start;white-space:normal;shape-padding:0;clip-rule:nonzero;display:inline;overflow:visible;visibility:visible;opacity:1;isolation:auto;mix-blend-mode:normal;color-interpolation:sRGB;color-interpolation-filters:linearRGB;solid-color:#000000;solid-opacity:1;vector-effect:none;fill:#ffffff;fill-opacity:1;fill-rule:nonzero;stroke:none;stroke-width:25.34178925;stroke-linecap:butt;stroke-linejoin:miter;stroke-miterlimit:10;stroke-dasharray:none;stroke-dashoffset:0;stroke-opacity:1;paint-order:markers stroke fill;color-rendering:auto;image-rendering:auto;shape-rendering:auto;text-rendering:auto;enable-background:accumulate"
   d="m 105.29492,0.8828125 c -15.330689,0 -27.98615,12.5092265 -28.347654,27.7617185 H 59.326172 c -14.81989,0 -27.101563,12.2855 -27.101563,27.103516 v 30.597656 h 9.310547 v 0.408203 141.257814 c 0,14.81801 12.281676,27.10547 27.101563,27.10547 H 187.36133 c 14.81988,0 27.10156,-12.28745 27.10156,-27.10547 V 86.345703 h 9.3125 V 55.748047 c 0,-14.819897 -12.28363,-27.103516 -27.10351,-27.103516 H 179.05273 C 178.69118,13.390443 166.03382,0.8828125 150.70312,0.8828125 Z m -3.07226,51.7949215 h 51.55468 v 1.308594 h 42.89454 c 1.12107,0 1.76171,0.640652 1.76171,1.761719 v 5.255859 H 57.566406 v -5.255859 c 0,-1.122948 0.638692,-1.761719 1.759766,-1.761719 H 102.22266 Z M 66.876953,99.423828 H 189.12109 V 228.01172 c 0,1.12294 -0.63869,1.76367 -1.75976,1.76367 H 68.636719 c -1.121076,0 -1.759766,-0.64073 -1.759766,-1.76367 z"
   id="path4749"
   inkscape:connector-curvature="0" /><path
   inkscape:connector-curvature="0"
   style="opacity:1;fill:#b21414;fill-rule:nonzero;stroke:none;stroke-width:25.34178925;stroke-linecap:butt;stroke-linejoin:miter;stroke-miterlimit:10;stroke-dasharray:none;stroke-opacity:1;paint-order:markers stroke fill"
   d="m 105.29562,13.554491 c -8.680034,0 -15.74316,7.063121 -15.74316,15.743163 V 41.314499 H 59.326507 c -7.970482,0 -14.431527,6.462813 -14.431527,14.433295 V 73.674069 H 211.10502 V 55.747794 c 0,-7.970482 -6.46282,-14.433295 -14.4333,-14.433295 H 166.44754 V 29.297654 c 0,-8.680042 -7.06489,-15.743163 -15.74493,-15.743163 z m 0,13.081002 h 45.40699 c 1.46999,0 2.6657,1.192174 2.6657,2.662161 V 40.006398 H 102.63346 V 29.297654 c 0,-1.467444 1.19217,-2.662161 2.66216,-2.662161 z M 54.205472,86.753303 V 228.01222 c 0,7.97048 6.461045,14.43329 14.431526,14.43329 H 187.36123 c 7.97048,0 14.43153,-6.46281 14.43153,-14.43329 V 86.753303 Z"
   id="path171" /><path
   inkscape:connector-curvature="0"
   id="path177"
   style="opacity:1;fill:#ffffff;fill-rule:nonzero;stroke:none;stroke-width:2.54322958;stroke-linecap:butt;stroke-linejoin:miter;stroke-miterlimit:10;stroke-dasharray:none"
   d="m 94.72109,215.30412 c 0,3.61138 -2.927258,6.53864 -6.538644,6.53864 -3.611386,0 -6.538643,-2.92726 -6.538643,-6.53864 v -96.1824 c 0,-3.61139 2.927257,-6.53865 6.538643,-6.53865 3.611386,0 6.538644,2.92726 6.538644,6.53865 z" /><path
   inkscape:connector-curvature="0"
   id="path179"
   style="opacity:1;fill:#ffffff;fill-rule:nonzero;stroke:none;stroke-width:2.54322958;stroke-linecap:butt;stroke-linejoin:miter;stroke-miterlimit:10;stroke-dasharray:none"
   d="m 134.53789,215.30412 c 0,3.61138 -2.92726,6.53864 -6.53864,6.53864 -3.61139,0 -6.53865,-2.92726 -6.53865,-6.53864 v -96.1824 c 0,-3.61139 2.92726,-6.53865 6.53865,-6.53865 3.61138,0 6.53864,2.92726 6.53864,6.53865 z" /><path
   inkscape:connector-curvature="0"
   id="path181"
   style="opacity:1;fill:#ffffff;fill-rule:nonzero;stroke:none;stroke-width:2.54322958;stroke-linecap:butt;stroke-linejoin:miter;stroke-miterlimit:10;stroke-dasharray:none"
   d="m 174.35724,215.30412 c 0,3.61138 -2.92726,6.53864 -6.53865,6.53864 -3.61138,0 -6.53864,-2.92726 -6.53864,-6.53864 v -96.1824 c 0,-3.61139 2.92726,-6.53865 6.53864,-6.53865 3.61139,0 6.53865,2.92726 6.53865,6.53865 z" />
</svg>