<?xml version="1.0" encoding="iso-8859-1"?>
<!-- Generator: Adobe Illustrator 19.0.0, SVG Export Plug-In . SVG Version: 6.00 Build 0)  -->
<svg version="1.1" id="Layer_1" xmlns="http://www.w3.org/2000/svg" xmlns:xlink="http://www.w3.org/1999/xlink" x="0px" y="0px"
	 viewBox="0 0 512 512" style="enable-background:new 0 0 512 512;" xml:space="preserve">
<path style="fill:#C9D2D9;" d="M349.172,81.036c0.71,4.802-0.706,9.675-3.877,13.35s-7.786,5.788-12.64,5.788H179.345
	c-4.854,0-9.468-2.113-12.639-5.788c-3.171-3.675-4.587-8.548-3.877-13.35l9.873-66.783C173.912,6.065,180.94,0,189.217,0h133.565
	c8.278,0,15.305,6.065,16.516,14.254L349.172,81.036z"/>
<path style="fill:#B7C4CC;" d="M332.655,100.174c4.854,0,9.468-2.113,12.639-5.788c3.171-3.675,4.587-8.548,3.877-13.35
	l-9.873-66.783C338.088,6.065,331.06,0,322.783,0H256v100.174H332.655z"/>
<path style="fill:#C9D2D9;" d="M386.482,364.856c-1.425,7.457-3.873,14.726-7.302,21.615l-21.037,42.051H153.856l-21.025-42.029
	c-3.439-6.912-5.888-14.18-7.313-21.638c-0.924-4.886,0.378-9.928,3.551-13.768c3.161-3.829,7.88-6.044,12.856-6.044h228.152
	c4.975,0,9.695,2.215,12.856,6.044C386.104,354.927,387.406,359.969,386.482,364.856z"/>
<path style="fill:#B7C4CC;" d="M256,428.522h102.144l21.037-42.051c3.428-6.89,5.877-14.158,7.302-21.615
	c0.924-4.886-0.378-9.928-3.551-13.768c-3.161-3.829-7.88-6.044-12.856-6.044H256V428.522z"/>
<path style="fill:#FFC033;" d="M387.551,340.847c-0.022-0.256-0.056-0.512-0.089-0.768l-27.214-184.153l-13.178-89.144H164.931
	l-9.16,61.985l-12.01,81.286l-19.222,130.026c-0.033,0.256-0.067,0.512-0.089,0.768c-1.28,12.689,0.367,25.511,4.886,37.587h253.329
	C387.183,366.358,388.831,353.536,387.551,340.847z"/>
<path style="fill:#F9A926;" d="M256,378.435h126.664c4.519-12.077,6.166-24.899,4.886-37.587c-0.022-0.256-0.056-0.512-0.089-0.768
	l-27.214-184.153l-13.178-89.144H256V378.435z"/>
<path style="fill:#736056;" d="M387.072,504.086c-3.039,4.92-8.415,7.914-14.202,7.914H139.13c-5.788,0-11.164-2.994-14.202-7.914
	c-3.039-4.931-3.317-11.075-0.735-16.25l29.663-59.314h204.288l29.663,59.314C390.389,493.011,390.111,499.155,387.072,504.086z"/>
<path style="fill:#665247;" d="M256,512h116.87c5.788,0,11.164-2.994,14.202-7.914c3.039-4.931,3.317-11.075,0.735-16.25
	l-29.663-59.314H256V512z"/>
<g>
	<path style="fill:#FFE0B2;" d="M178.087,123.548c-7.88,0-15.471,1.803-22.317,5.22l-12.01,81.286
		c8.982,8.47,21.07,13.668,34.326,13.668c27.615,0,50.087-22.472,50.087-50.087S205.702,123.548,178.087,123.548z"/>
	<path style="fill:#FFE0B2;" d="M347.069,66.783h-85.203c-14.214,12.466-22.561,30.509-22.561,50.087
		c0,36.819,29.963,66.783,66.783,66.783c21.571,0,41.628-10.307,54.161-27.726L347.069,66.783z"/>
</g>
<path style="fill:#FDCD99;" d="M256,160.968c12.248,13.894,30.157,22.684,50.087,22.684c21.571,0,41.628-10.307,54.161-27.726
	l-13.178-89.144h-85.203c-2.09,1.833-4.037,3.801-5.866,5.862V160.968z"/>
<path style="fill:#FFE0B2;" d="M288.779,270.403c-3.784-23.897-24.531-42.229-49.475-42.229c-0.423,0-0.846,0-1.258,0.011
	c-13.123,0.334-25.4,5.688-34.571,15.082c-9.194,9.405-14.258,21.838-14.258,34.994c0,7.936,2.015,15.783,5.799,22.895
	c-3.818,8.504-5.799,17.742-5.799,27.192c0,17.864,6.99,34.66,19.667,47.304c0.968,0.957,1.959,1.892,2.972,2.783h88.242
	c13.902-12.255,22.684-30.175,22.684-50.087C322.783,304.095,309.515,282.09,288.779,270.403z"/>
<path style="fill:#FDCD99;" d="M256,378.435h44.099c13.902-12.255,22.684-30.175,22.684-50.087
	c0-24.253-13.267-46.258-34.003-57.945c-2.896-18.29-15.734-33.308-32.779-39.355L256,378.435L256,378.435z"/>
<g>
</g>
<g>
</g>
<g>
</g>
<g>
</g>
<g>
</g>
<g>
</g>
<g>
</g>
<g>
</g>
<g>
</g>
<g>
</g>
<g>
</g>
<g>
</g>
<g>
</g>
<g>
</g>
<g>
</g>
</svg>
